<?xml version="1.0" standalone="no"?>
<!DOCTYPE svg PUBLIC "-//W3C//DTD SVG 1.1//EN" "http://www.w3.org/Graphics/SVG/1.1/DTD/svg11.dtd" >
<!--
2013-9-30: Created.
-->
<svg>
<metadata>
Created by iconfont
</metadata>
<defs>

<font id="iconfont" horiz-adv-x="1024" >
  <font-face
    font-family="iconfont"
    font-weight="500"
    font-stretch="normal"
    units-per-em="1024"
    ascent="896"
    descent="-128"
  />
    <missing-glyph />
    
    <glyph glyph-name="qukuailianwangluo" unicode="&#58880;" d="M500.277432-124.78586299999995L83.181406 119.54345599999999a23.405507 23.405507 0 0 0-11.482983 20.136428V628.2011660000001a23.295622 23.295622 0 0 0 11.482983 20.136428L500.167547 892.666913a23.350565 23.350565 0 0 0 23.515392 0l417.013612-244.329319a23.405507 23.405507 0 0 0 11.455512-20.081486v-488.603696a23.432978 23.432978 0 0 0-11.455512-20.136428l-417.013612-244.329319a23.542863 23.542863 0 0 0-11.785167-3.214136 23.24068 23.24068 0 0 0-11.62034 3.241608z m11.757696 47.058255l321.77078 188.535205H603.624284a96.149384 96.149384 0 0 0-91.589156-67.826522 96.149384 96.149384 0 0 0-91.644098 67.826522H190.29182z m365.367658 240.84047l-138.043044 242.8184a94.391223 94.391223 0 0 0-23.075852-2.747125 89.583754 89.583754 0 0 0-23.24068 3.159194l-114.115582-197.793017a96.149384 96.149384 0 0 0 26.09769-45.409981z m-458.550146 0a96.149384 96.149384 0 0 0 32.196308 50.766875l-55.684229 96.561452-56.700665 98.26467a94.116511 94.116511 0 0 0-31.015044-5.494251 93.567086 93.567086 0 0 0-24.009875 3.104252L143.398392 163.16780500000004z m387.344659 371.246505a96.561452 96.561452 0 0 0-21.564933-102.22053l121.06581-212.819792v395.586035L568.378667 812.505798l124.746957-219.303008a91.149616 91.149616 0 0 0 23.185737 3.214137 96.479039 96.479039 0 0 0 89.940881-62.030088zM118.289667 614.90508v-390.256613l120.159258 208.341979a96.451567 96.451567 0 0 0-20.905623 101.259036 96.424096 96.424096 0 0 0 89.940881 62.194916 95.105476 95.105476 0 0 0 23.432978-3.214137l127.549025 220.978755z m414.815912-381.191099l114.774892 198.781982a95.435131 95.435131 0 0 0-24.724127 44.640786h-222.022662a96.149384 96.149384 0 0 0-19.229877-38.459754l117.357191-203.479567a94.501108 94.501108 0 0 0 12.884017 0.988966 96.149384 96.149384 0 0 0 20.905623-2.444942z m92.193523 295.728032a95.105476 95.105476 0 0 0 22.608841 37.553202l-134.801436 237.049438-136.806837-237.131851a96.588924 96.588924 0 0 0 22.444013-37.443317z"  horiz-adv-x="1024" />

    
    <glyph glyph-name="chakanxiangqing" unicode="&#58918;" d="M911.3 737.4h-800c-26.5 0-48 21.5-48 48s21.5 48 48 48h800c26.5 0 48-21.5 48-48s-21.5-48-48-48z m1-400.5h-800c-26.5 0-48 21.5-48 48s21.5 48 48 48h800c26.5 0 48-21.5 48-48s-21.5-48-48-48zM592.1-63.6H112c-26.5 0-48 21.5-48 48s21.5 48 48 48h480.1c26.5 0 48-21.5 48-48s-21.5-48-48-48z"  horiz-adv-x="1024" />

    
    <glyph glyph-name="yibiaopan" unicode="&#58919;" d="M802.816 310.272c18.432 0 33.28 14.848 33.28 33.28 0 44.544-8.704 88.064-26.112 129.024C793.6 512 769.536 547.328 738.816 578.048c-30.208 30.208-66.048 54.272-105.472 71.168-40.96 17.408-83.968 26.112-129.024 26.112s-88.064-8.704-129.024-26.112c-39.424-16.384-74.752-40.448-105.472-71.168S216.576 512 199.68 472.576c-17.408-40.96-26.112-83.968-26.112-129.024 0-18.432 14.848-33.28 33.28-33.28s33.28 14.848 33.28 33.28c0 70.656 27.648 136.704 77.312 186.88s116.224 77.312 186.88 77.312 136.704-27.648 186.88-77.312 77.312-116.224 77.312-186.88c0.512-18.432 15.36-33.28 34.304-33.28zM535.04 115.2V382.464c0 16.384-13.312 29.696-29.696 29.696s-29.696-13.312-29.696-29.696V115.2c-22.016-10.752-37.376-33.792-37.376-59.904 0-36.864 29.696-67.072 67.072-67.072 36.864 0 67.072 29.696 67.072 67.072-0.512 26.112-15.36 49.152-37.376 59.904z m408.576 414.72c-24.064 56.832-58.368 107.52-101.888 151.04s-94.72 77.824-151.04 101.888c-58.88 25.088-120.832 37.376-185.344 37.376S378.368 807.936 320 783.36c-56.832-24.064-107.52-58.368-151.04-101.888s-78.336-94.72-102.4-151.552c-24.576-58.88-37.376-120.832-37.376-185.344 0-67.072 13.824-132.096 40.96-193.024 26.112-58.88 63.488-111.104 110.592-155.136 13.312-12.8 34.816-11.776 47.104 1.536 12.8 13.312 11.776 34.816-1.536 47.104-40.448 37.888-72.704 82.944-95.232 133.12-23.04 52.224-34.816 108.032-34.816 165.888 0 55.296 10.752 108.544 32.256 159.232 20.48 48.64 50.176 92.16 87.552 130.048s81.408 67.072 130.048 87.552c50.176 21.504 103.936 32.256 159.232 32.256s108.544-10.752 159.232-32.256c48.64-20.48 92.672-50.176 130.048-87.552 37.376-37.376 67.072-81.408 87.552-130.048 21.504-50.176 32.256-103.936 32.256-159.232 0-57.856-11.776-113.664-34.816-165.888-22.528-50.688-54.272-95.232-95.232-133.12-13.312-12.8-14.336-33.792-1.536-47.104 6.656-7.168 15.36-10.752 24.576-10.752 8.192 0 16.384 3.072 23.04 9.216 47.104 44.032 84.48 96.256 110.592 155.136 27.136 60.928 40.448 125.952 40.448 193.024-0.512 64.512-12.8 126.464-37.888 185.344z"  horiz-adv-x="1024" />

    
    <glyph glyph-name="accountbook-copy" unicode="&#58917;" d="M884.525 516.548125V713.44C884.525 785.4859375 822.5834375 844 745.690625 844h-552C117.3490625 844 54.858125 785.4859375 54.858125 712.890625v-652.3425c0-72.5484375 61.9425-131.0625 138.834375-131.0625h135.4509375v65.8284375H193.6915625c-38.7196875 0-69.714375 29.2575-69.714375 65.8284375v651.703125c0 36.0684375 31.543125 65.8284375 69.714375 65.8284375h552c38.7196875 0 69.6684375-29.2565625 69.6684375-65.28v-197.439375h69.1659375v0.5484375zM773.3496875 406.834375H871.221875l-395.42812501-373.3940625-48.68624999 45.9421875 68.5715625-7.816875-7.771875-60.61687501c-1.6453125-11.9775 1.14375001-14.0803125 13.303125-12.52593749l64.183125 7.314375 8.274375-64.7315625-48.68625 45.94312499 395.475 373.44v-92.48062499L773.34874999 406.88125001z m49.23375 46.490625L969.14375001 314.94906249999997l-395.42812501-373.44-64.183125-7.3134375c-57.005625-6.2625-97.3715625 31.359375-90.1940625 85.119375l7.771875 60.6178125L822.5375 453.325zM297.096875 582.8809375000001h345.69187499c19.3828125 0 34.8796875 14.62875001 34.87968751 32.9146875 0 18.285-15.5428125 32.91375001-34.87968751 32.91375H297.1428125c-19.336875 0-34.8346875-14.62875001-34.8346875-32.91375 0-18.2859375 15.496875-32.9146875 34.8346875-32.9146875z m0-195.8859375h276.57187499c19.3828125 0 34.83375001 14.62875001 34.83375001 32.9146875 0 18.2859375-15.4509375 32.91375001-34.83375001 32.91375H297.1428125c-19.336875 0-34.8346875-14.6278125-34.8346875-32.91375 0-18.2859375 15.496875-32.9146875 34.8346875-32.9146875z m0-195.84h69.1659375c19.336875 0 34.8346875 14.62875001 34.8346875 32.9146875 0 18.2859375-15.496875 32.91375001-34.8346875 32.91375H297.096875c-19.336875 0-34.83375001-14.6278125-34.83375-32.91375 0-18.2859375 15.496875-32.9146875 34.83375-32.9146875z"  horiz-adv-x="1024" />

    
    <glyph glyph-name="accountbook" unicode="&#58916;" d="M909.36 525.38466667V735.40266667C909.36 812.25166667 843.289 874.66666667 761.27 874.66666667h-588.8C91.039 874.66666667 24.382 812.25166667 24.382 734.81666667v-695.832c0-77.385 66.072-139.8 148.09-139.8h144.481v70.217H172.471c-41.301 0-74.362 31.208-74.362 70.217v695.15c0 38.473 33.646 70.217 74.362 70.217h588.8c41.301 0 74.313-31.207 74.313-69.632v-210.602h73.777v0.585zM790.773 408.35666667H895.17l-421.79-398.287-51.932 49.005 73.143-8.338-8.29-64.658c-1.755-12.776 1.22-15.019 14.19-13.361l68.462 7.802 8.826-69.047-51.932 49.006 421.84 398.336v-98.646L790.772 408.40666667z m52.516 49.59L999.62 310.34566667l-421.79-398.336-68.462-7.801c-60.806-6.68-103.863 33.45-96.207 90.794l8.29 64.659L843.24 457.94666667zM282.77 596.13966667h368.738c20.675 0 37.205 15.604 37.205 35.109 0 19.504-16.579 35.108-37.205 35.108H282.819c-20.626 0-37.157-15.604-37.157-35.108 0-19.505 16.53-35.109 37.157-35.109z m0-208.945h295.01c20.675 0 37.156 15.604 37.156 35.109 0 19.505-16.481 35.108-37.156 35.108H282.819c-20.626 0-37.157-15.603-37.157-35.108 0-19.505 16.53-35.109 37.157-35.109z m0-208.896h73.777c20.626 0 37.157 15.604 37.157 35.109 0 19.505-16.53 35.108-37.157 35.108H282.77c-20.626 0-37.156-15.603-37.156-35.108 0-19.505 16.53-35.109 37.156-35.109z"  horiz-adv-x="1024" />

    
    <glyph glyph-name="qukuaiguanli" unicode="&#58913;" d="M904.74666667-24.853333330000055H343.46666667c-46.61333333 0-84.37333333 36.48-84.37333334 81.70666666V466.13333333c0 45.22666667 37.76 81.70666667 84.48 81.70666667h251.84c15.46666667 0 28.05333333-12.16 28.05333334-27.30666667 0-15.04-12.58666667-27.30666667-28.05333334-27.30666666H343.57333333c-15.78666667 0-28.26666667-12.16-28.26666666-27.2v-409.17333334c0-15.04 12.58666667-27.2 28.16-27.2h561.17333333c15.57333333 0 28.16 12.16 28.16 27.2V466.13333333c0 15.04-12.58666667 27.2-28.26666667 27.2h-54.4c-15.46666667 0-28.05333333 12.16-28.05333333 27.30666667 0 15.04 12.58666667 27.30666667 28.05333333 27.30666667h54.4c46.61333333 0 84.48-36.48 84.48-81.70666667v-409.17333333c0.10666667-45.33333333-37.76-81.92-84.26666666-81.92zM680 220.58666667H428.16c-15.46666667 0-28.05333333 12.16-28.05333333 27.30666666 0 15.04 12.58666667 27.30666667 28.05333333 27.30666667h251.84c15.78666667 0 28.26666667 12.16 28.26666667 27.2V711.57333333c0 15.04-12.58666667 27.2-28.16 27.2H118.93333333c-15.57333333 0-28.16-12.16-28.16-27.2v-409.17333333c0-15.04 12.58666667-27.2 28.26666667-27.2h54.4c15.46666667 0 28.05333333-12.16 28.05333333-27.30666667 0-15.04-12.58666667-27.30666667-28.05333333-27.30666666h-54.4c-46.61333333 0-84.48 36.48-84.48 81.70666666V711.57333333c0 45.22666667 37.76 81.70666667 84.37333333 81.70666667h561.17333334c46.61333333 0 84.37333333-36.48 84.37333333-81.70666667v-409.17333333c0-45.22666667-37.76-81.81333333-84.48-81.81333333z m0 0"  horiz-adv-x="1024" />

    
    <glyph glyph-name="heyueguanli" unicode="&#58914;" d="M859.19521484-64.52695312000003c-11.7 0-20.45390625 2.82216797-32.11347656 8.42695312L505.86347656 137.44130858999995 190.49609375-56.10000000000002c-17.50869141-11.20869141-40.86826172-11.20869141-58.37695313-2.82304688-17.55 11.25-29.20957031 28.10478516-29.20957031 50.52304688V777.0547851599999c0 30.76347656 26.26435547 56.00390625 58.41826172 56.00390625h700.77304688c32.11347656 0 58.41826172-25.24042969 58.41826172-56.04521485V-8.440429689999974c0-19.63564453-11.7-39.27216797-29.20957032-50.52216797-11.7-2.78173828-23.35869141-5.60478516-32.11347656-5.60478515z m0 56.12695312V777.0547851599999H158.42304688v-785.45478516L476.69433594 185.14130859c17.50957031 11.20869141 43.77304687 11.20869141 61.28173828 0l321.21826172-193.54130859zM537.69042969 384a30.68261719 30.68261719 0 1 0 0 61.36347656 30.68261719 30.68261719 0 0 0 0-61.36347656z m89.42783203 0.32695313a30.68261719 30.68261719 0 1 0 0 61.36435546 30.68261719 30.68261719 0 0 0 0-61.36435546z m89.42695312 0a30.68261719 30.68261719 0 1 0 0 61.36435546 30.68261719 30.68261719 0 0 0 0-61.36435546z m2.49609375 183.92783203h-434.61914062c-16.85390625 0-28.10390625 12.27216797-28.10390625 30.6 0 18.36826172 11.25 30.6 28.10478515 30.6h434.61826172c16.89521484 0 28.14521484-12.27304688 28.14521485-30.6 0-18.36914063-11.25-30.6-28.14521485-30.6zM442.49521484 384.65478516H284.42304688c-16.85478516 0-28.10478516 12.23173828-28.10478516 30.6s11.25 30.6 28.10478516 30.6h158.07216796c16.85478516 0 28.10478516-12.27304688 28.10478516-30.6 0-18.36914063-11.25-30.6-28.10478516-30.6z"  horiz-adv-x="1024" />

    
    <glyph glyph-name="siyueguanli" unicode="&#58915;" d="M500.63289031 362.54592749999995c-20.96235657 0-37.97411531-16.99582125-37.97411531-37.95817781v-169.33196719c0-20.99516906 17.01175875-37.99005281 37.97411531-37.99005281 20.98204406 0 37.97786531 16.99582125 37.97786532 37.99005281V324.58774969c0 20.96235657-16.99488375 37.95911531-37.97786532 37.95911531zM962.29879719 423.28145062c-0.56249625 2.96810437-1.31155312 5.84058469-1.99967438 8.746815a158.07548156 158.07548156 0 0 1-5.93433469 19.02736969c-1.0949925 2.90529281-2.09436094 5.77964813-3.34403906 8.59212844-3.62341312 8.02869469-7.7155725 15.83989219-12.59053875 23.1504675-1.37530313 2.09342345-3.12466594 3.93653531-4.62465656 5.96714625-3.87372375 5.24902688-7.93494562 10.31055469-12.40210219 15.05895937-2.84341781 2.99810438-5.84245969 5.74777313-8.8733775 8.52837938-3.53060062 3.18747844-7.21682531 6.18745781-11.02867406 9.09181312-3.68716219 2.81248031-7.37244938 5.62496156-11.37179719 8.12338219-3.15560345 1.96873687-6.5615175 3.59341313-9.8718075 5.3737125-4.24965844 2.28092156-8.18619375 4.96871625-12.59053876 6.84182813C852.26329906 721.29941344 699.6787175 863.70000187 517.30340094 863.70000187c-182.36125312 0-334.91771063-142.36965187-350.36666719-321.82467468-5.34277594-2.28092156-10.29367969-5.09246531-15.27645844-7.87307157-1.90592438-1.06218-3.98434781-1.87498688-5.84245969-2.99904187-3.3431025-2.06154844-6.34214438-4.52996906-9.51274781-6.81089064-3.18747844-2.28092156-6.5765175-4.374345-9.57555937-6.87370311-1.71842531-1.43717812-3.15560345-3.15560345-4.81121719-4.65465563-4.07809687-3.71809969-8.20119375-7.37338687-11.85648094-11.46554718-0.87468187-0.96749344-1.54686469-2.09248594-2.39060906-3.09185344-4.13903438-4.87496625-8.18431875-9.872745-11.71491937-15.18364594-0.046875-0.09374906-0.07781156-0.18749906-0.12468657-0.25031062a159.15547406 159.15547406 0 0 1-19.51111687-41.48971688c-0.26531063-0.87468187-0.34405969-1.78123781-0.59343375-2.65591969-1.88998687-6.6233925-3.51560062-13.30959655-4.54684406-20.21423625a159.50047219 159.50047219 0 0 1-1.76436282-23.77483782v-330.57242718c0-88.19564719 71.76325969-159.95890688 159.95890688-159.95890687h575.84043844c88.22752219 0 159.95890688 71.76325969 159.95890686 159.95890687V394.53883406c0 9.8099325-1.1568675 19.36861781-2.8752928 28.74261656zM517.30340094 799.7160646899999c142.94714812 0 263.2603875-107.06551781 284.1618075-245.21832375H233.12378094C254.04020094 692.65054594 374.33844125 799.7160646899999 517.30340094 799.7160646899999z m383.88675094-735.74965781c0-52.92338813-43.05064313-95.97496875-95.97496875-95.97496969H229.37380719c-52.92432562 0-95.97496875 43.05158062-95.97496875 95.97496969V394.53883406c0 9.65337187 1.43717812 19.08736969 4.15590844 28.02449625 8.13744469 26.80575469 27.75731062 49.14341438 54.45337781 60.42146156 4.34246999 1.84405031 9.02900063 2.93810531 13.68459375 4.12497188l6.6233925 1.71842624c5.60808656 0.99936844 11.27804812 1.68655125 17.05769625 1.68655032h575.84043844c5.93620969 0 11.68492031-0.71812031 17.30800687-1.74936281l6.43589344-1.65561375c15.55864406-3.99934781 29.36698687-11.68398281 40.64597156-21.86985 0.34312219-0.31218563 0.71812031-0.56249625 1.03124344-0.87468188 2.74873125-2.53123312 5.12246531-5.34183844 7.49713593-8.15431968 1.37436562-1.59373875 2.81248031-3.18747844 4.06122282-4.90496625 1.87498688-2.49935813 3.49872563-5.12340281 5.12340187-7.77932157a111.26548969 111.26548969 0 0 0 3.99934782-7.34245031c1.18780406-2.46842063 2.34373406-4.93684125 3.312165-7.49807344 1.24967906-3.2493525 2.249985-6.6233925 3.12372843-9.99743156 0.56249625-2.156235 1.24967906-4.24872094 1.65655125-6.43589343 1.0931175-5.74871063 1.78123781-11.65304531 1.78123782-17.71394157v-330.57242719z"  horiz-adv-x="1024" />

    
    <glyph glyph-name="shanchu" unicode="&#58903;" d="M512 896C227.84 896 0 668.16 0 384s227.84-512 512-512 512 227.84 512 512S796.16 896 512 896zM726.016 169.984c-13.824-13.824-37.376-13.824-51.2 0L512 332.8 349.184 169.984c-13.824-13.824-37.376-13.824-51.2 0s-13.824 37.376 0 51.2L460.8 384 297.984 546.816c-13.824 13.824-13.824 37.376 0 51.2s37.376 13.824 51.2 0L512 435.2l162.816 162.816c13.824 13.824 37.376 13.824 51.2 0s13.824-37.376 0-51.2L563.2 384l162.816-162.816c18.944-13.824 18.944-39.424 0-51.2z"  horiz-adv-x="1024" />

    
    <glyph glyph-name="fangda" unicode="&#58904;" d="M103.039 733.431v-692.887c0-35.346 28.654-64 64-64h692.396c35.346 0 64 28.654 64 64V733.431c0 35.346-28.654 64-64 64H167.039c-35.346 0-64-28.653-64-64z m756.396-692.887H167.039V733.431h692.396v-692.887zM566.34 651.549c0-17.673 14.327-32 32-32h143.5v-151.94c0-17.673 14.327-32 32-32 17.673 0 32 14.327 32 32v215.94h-207.5c-17.673 0-32-14.327-32-32zM582.819 409.485L745.87 572.536c12.515 12.516 12.515 32.807 0 45.323-12.516 12.516-32.807 12.516-45.323 0l-163.05-163.051c-12.516-12.516-12.516-32.807 0-45.323 12.515-12.515 32.807-12.515 45.322 0zM460.937 120.603c0 17.673-14.327 32-32 32h-143.5v151.94c0 17.673-14.327 32-32 32-17.673 0-32-14.327-32-32v-215.94h207.5c17.673 0 32 14.326 32 32zM452.206 370.414L281.407 199.615c-12.515-12.516-12.515-32.807 0-45.323 12.516-12.516 32.807-12.516 45.323 0l170.799 170.799c12.515 12.516 12.515 32.807 0 45.323-12.516 12.515-32.808 12.515-45.323 0z"  horiz-adv-x="1024" />

    
    <glyph glyph-name="xuanzhong" unicode="&#58905;" d="M867.4 669.7c-11.2 0-21.9-4.6-29.5-12.8L394.8 201.5 187.1 415.6l-0.1-0.1c-7.7 9-18.9 14.2-30.8 14.2-22.8 0-41.2-19-41.2-42.3 0-12 4.9-23.4 13.7-31.5l236.8-244.1 0.2-0.2c7.6-8 18.2-12.6 29.3-12.6 11.1 0 21.7 4.6 29.3 12.6l471.3 484.9c8.3 8.1 13 19.2 13 30.8 0 23.4-18.4 42.4-41.2 42.4z m0 0"  horiz-adv-x="1024" />

    
    <glyph glyph-name="xianshi" unicode="&#58906;" d="M512.01636 188.075a155.99 155.99 0 1 0-0.057 311.921 155.99 155.99 0 0 0 0-311.921m0 363.975a208.555 208.555 0 0 1-207.986-207.986A208.555 208.555 0 0 1 512.01636 136.078a208.555 208.555 0 0 1 207.986 207.986A208.555 208.555 0 0 1 512.01636 552.05M512.01636 84.025c-243.883 0-392.42 158.777-445.724 228.181a51.996 51.996 0 0 0 0 63.716c53.304 69.404 201.841 228.124 445.667 228.124s392.363-158.72 445.61-228.124a51.826 51.826 0 0 0 0-63.716c-53.247-69.404-201.784-228.124-445.61-228.124m213.22 530.375l41.585 72.818a27.42 27.42 0 0 1-10.41 36.409 27.477 27.477 0 0 1-36.41-10.411l-46.819-83.229c-41.529 10.411-88.348 20.765-140.345 20.765V754.916c0 15.53-10.41 25.94-25.998 25.94-10.41 5.178-20.821-5.233-20.821-20.82v-103.993c-51.997 0-98.816-10.411-140.402-20.822l-41.529 78.052a27.477 27.477 0 0 1-36.409 10.354c-15.644-5.12-20.878-20.822-10.467-36.352l41.586-72.818C136.26536 551.026 43.30836 427.292 8.20836 371.94a51.598 51.598 0 0 1-0.17-55.58C56.22136 240.07 214.71436 32.027 512.01636 32.027c297.529 0 456.078 208.441 504.036 284.559a51.143 51.143 0 0 1-0.171 55.182c-34.93 55.182-128 179.2-290.645 242.688"  horiz-adv-x="1024" />

    
    <glyph glyph-name="shangchuan" unicode="&#58907;" d="M977.53-106.667h-56.096v16.028h40.069c8.85 0 16.028 7.178 16.028 16.028v40.07h16.028v-56.098c0-8.849-7.177-16.028-16.028-16.028h-0.002z m0 216.366h16.027v-64.107H977.53V109.7z m0 144.245h16.027v-64.107H977.53v64.106z m0 144.243h16.027v-64.108H977.53v64.108z m0 152.26h16.027v-72.125H977.53v72.124z m0 144.242h16.027v-64.108H977.53V694.69z m0 128.214c0 8.851-7.176 16.028-16.029 16.028h-40.069v16.03h56.095c8.851 0 16.029-7.177 16.029-16.03v-64.107h-16.029V822.905zM777.19-90.639h64.107v-16.028h-64.108z m0 945.597h64.107V838.93h-64.108zM528.77 133.742h-24.04V350.108H288.364v24.04H504.73v224.38h24.04v-224.38h224.38v-24.04H528.77v-216.366zM632.948 854.958h64.107V838.93h-64.107V854.96z m-144.243 0h64.109V838.93h-64.11V854.96z m-152.26 0h72.122V838.93h-72.121V854.96zM192.203-90.639h64.107v-16.028h-64.107v16.028z m0 945.597h64.107V838.93h-64.107V854.96zM31.931-90.639v56.097h16.028v-40.069c0-8.848 7.176-16.028 16.028-16.028h48.081v-16.028H47.961c-8.85 0-16.028 7.177-16.028 16.028h-0.002zM47.959 822.903v-48.08H31.931V838.928c0 8.851 7.177 16.03 16.028 16.03h64.11v-16.03H63.986c-8.85 0-16.028-7.175-16.028-16.028z m0-192.322H31.931V694.69h16.028l0.002-64.108h-0.002z m0-152.259H31.931v72.124h16.028l0.002-72.124h-0.002z m0-144.243H31.931v64.108h16.028l0.002-64.108h-0.002z m0-144.242H31.931v64.106h16.028l0.002-64.107h-0.002z m0-144.243H31.931v64.107h16.028l0.002-64.107z m360.611-152.26h-72.122V-90.64h72.121v-16.028z m144.244 0h-64.11V-90.64h64.11v-16.028z m144.24 0h-64.106V-90.64h64.107v-16.028z"  horiz-adv-x="1024" />

    
    <glyph glyph-name="shouqi" unicode="&#58908;" d="M795.927273 30.254545c18.618182-18.618182 46.545455-18.618182 65.163636 0 18.618182 18.618182 18.618182 46.545455 0 65.163637l-311.854545 302.545454s-4.654545 4.654545-9.309091 4.654546l-4.654546 4.654545c-18.618182 18.618182-46.545455 18.618182-65.163636 0L162.909091 104.727273c-18.618182-18.618182-18.618182-46.545455 0-65.163637 18.618182-18.618182 46.545455-18.618182 65.163636 0l279.272728 274.618182 288.581818-283.927273zM795.927273 360.727273c18.618182-18.618182 46.545455-18.618182 65.163636 0 18.618182 18.618182 18.618182 46.545455 0 65.163636l-311.854545 302.545455s-4.654545 4.654545-9.309091 4.654545l-4.654546 4.654546c-18.618182 18.618182-46.545455 18.618182-65.163636 0L162.909091 430.545455c-18.618182-18.618182-18.618182-46.545455 0-65.163637 18.618182-18.618182 46.545455-18.618182 65.163636 0l279.272728 274.618182 288.581818-279.272727z"  horiz-adv-x="1024" />

    
    <glyph glyph-name="xuanzhong1" unicode="&#58909;" d="M128 896h768q128 0 128-128v-768q0-128-128-128H128Q0-128 0 0V768Q0 896 128 896zM382.208 188.992l403.392 448a35.968 35.968 0 1 0 53.568-48.192L409.792 112a35.84 35.84 0 0 0-17.92-10.88 36.032 36.032 0 0 0-36.864 10.496l-169.6 188.352a35.968 35.968 0 0 0 53.504 48.192l143.36-159.168z"  horiz-adv-x="1024" />

    
    <glyph glyph-name="yincang" unicode="&#58910;" d="M539.233 98.268h-54.19V261.996c-54.093 3.824-105.175 16.05-154.803 38.64l-80.758-139.673c-15.79 9.093-30.858 17.771-47.13 27.14 26.481 45.942 52.767 91.551 79.637 138.169-46.413 29.26-86.338 65.475-120.084 110.136-43.822-25.252-87.399-50.365-131.835-75.97-9.124 15.795-17.946 31.063-27.208 47.104l129.009 74.578c-32.4 58.388-51.426 120.161-55.532 187.187h53.95c11.29-117.115 63.18-212.178 158.725-281.795 67.415-49.121 143.708-72.683 227.21-71.362 98.918 1.566 184.919 36.336 256.814 104.11 71.603 67.497 110.26 151.45 118.933 249.477h54.087c-3.917-66.596-22.8-128.271-55.111-186.885 43.412-25.093 86.18-49.813 130.19-75.254a284778.44 284778.44 0 0 0-27.094-47.18c-44.426 25.604-88.361 50.933-132.94 76.625-33.245-43.689-72.377-80.307-119.543-109.829 26.737-46.387 53.197-92.303 80.149-139.07-15.81-9.128-31.079-17.95-47.11-27.207-27.253 47.155-53.97 93.363-80.301 138.92-23.281-7.874-45.143-16.854-67.83-22.522-25.042-6.251-50.77-9.979-76.355-13.711-8.37-1.224-11.182-3.38-11.095-12.191 0.466-46.838 0.22-93.68 0.22-140.524-0.005-3.978-0.005-7.95-0.005-12.64z"  horiz-adv-x="1024" />

    
    <glyph glyph-name="zhankai" unicode="&#58911;" d="M507.682 454.97L228.42 728.03c-17.88 17.514-46.827 17.514-64.706 0-18.002-17.637-17.88-45.733 0-63.248L474.72 360.83c17.88-17.515 46.827-17.515 64.706 0l2.433 2.432c2.676 1.825 5.352 3.77 7.541 5.96l311.007 303.952c17.88 17.515 18.001 45.733 0 63.248-17.88 17.515-46.827 17.515-64.707 0L507.682 454.97zM507.682 126.084L228.42 399.021c-17.88 17.515-46.827 17.515-64.706 0-18.002-17.636-17.88-45.732 0-63.247L474.72 31.7c17.88-17.515 46.827-17.515 64.706 0l2.433 2.432c2.676 1.825 5.352 3.77 7.541 5.96l311.007 303.953c17.88 17.514 18.001 45.732 0 63.247-17.88 17.515-46.827 17.515-64.707 0L507.682 126.084z"  horiz-adv-x="1024" />

    
    <glyph glyph-name="daikaifa" unicode="&#58912;" d="M828.98 16.396H181.789c-6.328 0-12.081-5.178-12.081-12.081 0-6.328 5.177-12.081 12.08-12.081h646.616c6.329 0 12.081 5.177 12.081 12.08 0 6.329-5.177 12.082-11.505 12.082z m79.964 0h-35.668c-6.328 0-12.08-5.178-12.08-12.081 0-6.328 5.177-12.081 12.08-12.081h35.668c6.328 0 12.08 5.177 12.08 12.08-0.575 6.329-5.752 12.082-12.08 12.082z m-774.904 0H97.798c-6.328 0-12.081-5.178-12.081-12.081 0-6.328 5.177-12.081 12.08-12.081h35.668c6.328 0 12.081 5.177 12.081 12.08 0.575 6.329-5.177 12.082-11.506 12.082z m597.142-58.104H372.207c-6.328 0-12.081-5.177-12.081-12.08 0-6.329 5.177-12.082 12.08-12.082h359.551c6.328 0 12.081 5.178 12.081 12.081-0.575 6.904-5.753 12.081-12.656 12.081z m70.76 0H777.78c-6.328 0-12.081-5.177-12.081-12.08 0-6.329 5.177-12.082 12.08-12.082h24.163c6.328 0 12.08 5.178 12.08 12.081-0.575 6.904-5.752 12.081-12.08 12.081z m-476.908 0H204.8c-6.328 0-12.08-5.177-12.08-12.08 0-6.329 5.177-12.082 12.08-12.082h119.658c6.329 0 12.081 5.178 12.081 12.081 0 6.904-5.177 12.081-11.505 12.081z m50.624 838.76c17.259 0 31.066 13.806 31.066 31.065s-13.807 31.065-31.066 31.065c-17.258 0-31.065-13.807-31.065-31.065s13.807-31.065 31.065-31.065z m0 47.748c9.205 0 16.684-7.479 16.684-16.683s-7.48-16.683-16.684-16.683-16.683 7.478-16.683 16.683S365.88 844.8 375.658 844.8zM186.966 535.874h13.232c3.451 0 6.328 2.877 6.328 6.328 0 3.452-2.877 6.328-6.328 6.328h-13.232c-3.451 0-6.328-2.876-6.328-6.328-0.575-3.451 2.877-6.328 6.328-6.328z m29.915-29.914c3.452 0 6.328 2.876 6.328 6.328v13.231c0 3.452-2.876 6.328-6.328 6.328-3.452 0-6.328-2.876-6.328-6.328v-13.231c-0.575-3.452 2.876-6.328 6.328-6.328z m0 47.173c3.452 0 6.328 2.876 6.328 6.328v13.231c0 3.452-2.876 6.328-6.328 6.328-3.452 0-6.328-2.876-6.328-6.328v-13.231c-0.575-3.452 2.876-6.328 6.328-6.328z m16.683-17.259h13.232c3.451 0 6.328 2.877 6.328 6.328 0 3.452-2.877 6.328-6.328 6.328h-13.232c-3.452 0-6.328-2.876-6.328-6.328 0-3.451 2.876-6.328 6.328-6.328zM539.614 640h6.903c1.726 0 2.876 1.15 2.876 2.876v0.576c0 1.726-1.15 2.876-2.876 2.876h-6.904c-1.725 0-2.876-1.15-2.876-2.876v-0.576c0-1.725 1.15-2.876 2.876-2.876z m13.806-13.807h0.576c1.725 0 2.876 1.15 2.876 2.877v6.903c0 1.726-1.15 2.876-2.876 2.876h-0.576c-1.726 0-2.876-1.15-2.876-2.876v-6.903c0-1.726 1.15-2.877 2.876-2.877z m0 21.286h0.576c1.725 0 2.876 1.15 2.876 2.876v6.903c0 1.726-1.15 2.877-2.876 2.877h-0.576c-1.726 0-2.876-1.15-2.876-2.877v-6.903c0-1.15 1.15-2.876 2.876-2.876z m8.054-7.479h6.904c1.725 0 2.876 1.15 2.876 2.876v0.576c0 1.726-1.15 2.876-2.876 2.876h-6.904c-1.726 0-2.876-1.15-2.876-2.876v-0.576c0-1.725 1.15-2.876 2.876-2.876z m172.584 50.05c13.807 0 25.313 11.505 25.313 25.312s-11.506 25.312-25.313 25.312c-13.806 0-25.312-11.505-25.312-25.312s11.506-25.313 25.312-25.313z m0 36.242c5.753 0 10.93-4.602 10.93-10.93s-4.601-10.93-10.93-10.93-10.93 4.602-10.93 10.93 5.178 10.93 10.93 10.93z m-623.604-28.189h5.753c1.726 0 2.876 1.15 2.876 2.877s-1.15 2.876-2.876 2.876h-5.753c-1.726 0-2.876-1.15-2.876-2.876s1.725-2.877 2.876-2.877z m17.258-17.258c1.726 0 2.877 1.15 2.877 2.876v5.753c0 1.726-1.15 2.877-2.877 2.877s-2.876-1.151-2.876-2.877v-5.753c-0.575-1.15 1.15-2.876 2.876-2.876z m0 28.189c1.726 0 2.877 1.15 2.877 2.876v5.753c0 1.726-1.15 2.876-2.877 2.876s-2.876-1.15-2.876-2.876v-5.753c-0.575-1.726 1.15-2.876 2.876-2.876z m16.684-5.178h-5.753c-1.726 0-2.877-1.15-2.877-2.876s1.15-2.877 2.877-2.877h5.753c1.725 0 2.876 1.15 2.876 2.877s-1.15 2.876-2.876 2.876z m-26.463 2.877c1.15-1.151 2.876-1.151 4.027 0 1.15 1.15 1.15 2.876 0 4.027l-4.027 4.027c-1.151 1.15-2.877 1.15-4.027 0-1.15-1.151-1.15-2.877 0-4.027l4.027-4.027z m0-11.506l-4.027-4.027c-1.15-1.15-1.15-2.876 0-4.027 1.15-1.15 2.876-1.15 4.027 0l4.027 4.027c1.15 1.15 1.15 2.876 0 4.027-1.151 1.15-2.877 1.15-4.027 0z m19.56 11.506l4.026 4.027c1.15 1.15 1.15 2.876 0 4.027-1.15 1.15-2.876 1.15-4.027 0l-4.027-4.027c-1.15-1.151-1.15-2.877 0-4.027 0.575-1.151 2.877-1.151 4.027 0z m0-20.135c1.15-1.15 2.876-1.15 4.026 0s1.15 2.876 0 4.027l-4.027 4.027c-1.15 1.15-2.876 1.15-4.027 0-1.15-1.15-1.15-2.877 0-4.027l4.027-4.027zM218.03 435.2v-264.054c0-19.56 16.108-35.667 35.668-35.667h203.65v-37.969h-95.497c-6.904 0-12.081-5.177-12.081-12.08 0-6.329 5.177-12.082 12.08-12.082h287.641c6.328 0 12.081 5.178 12.081 12.081 0 6.904-5.177 12.081-12.08 12.081H553.42v37.97h203.65c19.56 0 35.667 16.108 35.667 35.667V435.2c0 19.56-16.108 35.667-35.667 35.667H254.274c-20.135 0-36.243-16.107-36.243-35.667z m24.162 0c0 6.328 5.178 12.08 12.081 12.08h503.37c6.329 0 12.082-5.177 12.082-12.08v-264.054c0-6.328-5.178-12.08-12.081-12.08h-503.37c-6.329 0-12.082 5.177-12.082 12.08V435.2z m-153.6-201.924v0.576c0 1.726-1.15 2.876-2.876 2.876h-6.904c-1.725 0-2.876-1.15-2.876-2.876v-0.576c0-1.725 1.15-2.876 2.876-2.876h7.48c1.15 0 2.3 1.15 2.3 2.876z m4.603-16.683h0.575c1.726 0 2.876 1.15 2.876 2.877v6.903c0 1.726-1.15 2.876-2.876 2.876h-0.575c-1.726 0-2.877-1.15-2.877-2.876v-6.903c0-1.726 1.726-2.877 2.877-2.877z m0 21.86h0.575c1.726 0 2.876 1.151 2.876 2.877v6.904c0 1.726-1.15 2.876-2.876 2.876h-0.575c-1.726 0-2.877-1.15-2.877-2.876v-6.904c0-1.726 1.726-2.876 2.877-2.876z m8.053-8.053h6.904c1.726 0 2.876 1.15 2.876 2.876v0.576c0 1.726-1.15 2.876-2.876 2.876h-6.904c-1.725 0-2.876-1.15-2.876-2.876v-0.576c0-1.725 1.15-2.876 2.876-2.876z m786.41 92.62h5.752c1.726 0 2.877 1.15 2.877 2.877s-1.15 2.876-2.877 2.876h-5.753c-1.725 0-2.876-1.15-2.876-2.876 0-1.15 1.15-2.877 2.876-2.877z m16.683-4.602c-1.726 0-2.877-1.15-2.877-2.876v-5.753c0-1.726 1.15-2.877 2.877-2.877s2.876 1.15 2.876 2.877v5.753c0 1.15-1.15 2.876-2.876 2.876z m2.876 24.737c0 1.726-1.15 2.876-2.876 2.876s-2.877-1.15-2.877-2.876v-5.753c0-1.726 1.15-2.876 2.877-2.876s2.876 1.15 2.876 2.876v5.753z m13.807-13.807h-5.753c-1.726 0-2.876-1.15-2.876-2.876s1.15-2.876 2.876-2.876h5.753c1.726 0 2.876 1.15 2.876 2.876 0.575 1.15-1.15 2.876-2.876 2.876z m-22.436 6.328l-4.027 4.027c-1.15 1.15-2.877 1.15-4.027 0-1.15-1.15-1.15-2.876 0-4.027l4.027-4.027c1.15-1.15 2.876-1.15 4.027 0 1.15 1.151 1.15 2.877 0 4.027z m-4.027-14.957l-4.027-4.027c-1.15-1.15-1.15-2.876 0-4.027 1.15-1.15 2.876-1.15 4.027 0l4.027 4.027c1.15 1.15 1.15 2.877 0 4.027-1.15 1.15-2.877 1.15-4.027 0z m15.532 10.93c1.15-1.15 2.877-1.15 4.027 0l4.027 4.027c1.15 1.151 1.15 2.877 0 4.027-1.15 1.15-2.876 1.15-4.027 0l-4.027-4.027c-1.15-1.15-1.15-2.876 0-4.027z m0-15.532l4.027-4.027c1.15-1.15 2.877-1.15 4.027 0 1.15 1.15 1.15 2.876 0 4.027l-4.027 4.027c-1.15 1.15-2.876 1.15-4.027 0-1.15-0.575-1.15-2.877 0-4.027z m-44.296 179.487c0 3.452-2.877 6.329-6.328 6.329h-13.232c-3.451 0-6.328-2.877-6.328-6.329 0-3.451 2.877-6.328 6.328-6.328h13.232c3.451 0 6.328 2.877 6.328 6.328z m10.355-36.242c3.451 0 6.328 2.876 6.328 6.328v13.23c0 3.452-2.877 6.328-6.328 6.328-3.452 0-6.328-2.876-6.328-6.328v-13.231c0-3.452 2.876-6.328 6.328-6.328z m0 46.598c3.451 0 6.328 2.876 6.328 6.328v13.231c0 3.452-2.877 6.328-6.328 6.328-3.452 0-6.328-2.876-6.328-6.328v-13.231c0-3.452 2.876-6.328 6.328-6.328z m16.683-16.684h13.231c3.452 0 6.329 2.877 6.329 6.328 0 3.452-2.877 6.329-6.329 6.329h-13.231c-3.452 0-6.328-2.877-6.328-6.329 0-3.451 2.876-6.328 6.328-6.328zM329.06 256.863c2.877-2.876 8.055-2.876 10.931 0 3.452 3.452 3.452 8.63 0 12.08L307.2 301.736c-0.575 0.575-0.575 2.301 0 2.876l32.791 32.791c3.452 3.452 3.452 8.63 0 11.506-2.876 2.876-8.054 2.876-11.506 0l-42.57-42.57c-2.302-2.302-2.302-5.178 0-7.48l43.146-41.995z m123.11 47.173c0.576-0.575 0.576-2.301 0-2.876l-32.79-32.791c-3.452-3.452-3.452-8.63 0-12.081 2.876-2.877 8.054-2.877 10.93 0l42.57 42.57c2.302 2.302 2.302 5.178 0 7.48l-42.57 42.57c-2.876 2.876-8.054 2.876-11.506 0-3.451-3.452-3.451-8.63 0-11.506l33.367-33.366z m-82.84-62.706c4.027-0.575 8.054 2.301 8.63 6.328l18.984 107.578c0.575 4.027-2.301 8.054-6.328 8.63-4.027 0.574-8.054-2.302-8.63-6.329l-18.984-108.153c-0.575-3.451 1.726-7.478 6.328-8.054z m157.052 10.355h81.69c4.027 0 6.903 3.452 6.903 6.904 0 4.027-3.451 6.903-6.903 6.903h-81.69c-4.027 0-6.903-3.452-6.903-6.903-0.576-4.027 2.876-6.904 6.903-6.904z m157.627 14.382h-45.447c-4.027 0-6.904-3.451-6.904-6.903 0-4.027 3.452-6.903 6.904-6.903h45.447c4.027 0 6.903 3.451 6.903 6.903 0.576 3.452-2.876 6.903-6.903 6.903z m29.34-14.382h9.78c4.026 0 6.902 3.452 6.902 6.904 0 4.027-3.451 6.903-6.903 6.903h-9.78c-4.027 0-6.903-3.452-6.903-6.903 0-4.027 3.452-6.904 6.903-6.904zM594.84 306.337c0-4.027 3.452-6.903 6.904-6.903h81.69c4.027 0 6.903 3.451 6.903 6.903 0 4.027-3.452 6.903-6.903 6.903h-81.69c-3.452 0-6.904-2.876-6.904-6.903z m-68.458 6.903c-4.027 0-6.903-3.451-6.903-6.903 0-4.027 3.451-6.903 6.903-6.903h45.447c4.027 0 6.904 3.451 6.904 6.903 0 4.027-3.452 6.903-6.904 6.903h-45.447z m186.966-14.382h9.78c4.027 0 6.903 3.452 6.903 6.904 0 4.027-3.451 6.903-6.903 6.903h-9.78c-4.027 0-6.903-3.452-6.903-6.903s3.452-6.904 6.903-6.904zM526.382 343.73h9.78c4.027 0 6.903 3.452 6.903 6.904 0 4.027-3.452 6.903-6.903 6.903h-9.78c-4.027 0-6.903-3.452-6.903-6.903-0.576-3.452 2.876-6.904 6.903-6.904z m37.969 0h45.447c4.027 0 6.903 3.452 6.903 6.904 0 4.027-3.452 6.903-6.903 6.903H564.35c-4.027 0-6.904-3.452-6.904-6.903s2.877-6.904 6.904-6.904z"  horiz-adv-x="1024" />

    
    <glyph glyph-name="zhedieyou" unicode="&#58899;" d="M109.46 546.95h519.962c25.312 0 45.703-21.973 45.703-48.868s-20.39-48.867-45.703-48.867H109.46c-25.313 0-45.703 21.973-45.703 48.867s20.39 48.867 45.703 48.867z m0-228.165h519.962c25.312 0 45.703-21.972 45.703-48.867s-20.39-48.867-45.703-48.867H109.46c-25.313 0-45.703 21.972-45.703 48.867s20.39 48.867 45.703 48.867z m3.165-220.078h798.75c26.895 0 48.867-21.973 48.867-48.867s-21.972-48.867-48.867-48.867h-798.75c-26.895 0-48.867 21.972-48.867 48.867s21.972 48.867 48.867 48.867z m619.453 448.242L960.242 384 732.078 221.05v325.9z m179.297 122.344h-798.75c-26.895 0-48.867 21.973-48.867 48.867s21.972 48.867 48.867 48.867h798.75c26.895 0 48.867-21.972 48.867-48.867s-21.972-48.867-48.867-48.867z m0 0"  horiz-adv-x="1024" />

    
    <glyph glyph-name="yuyan" unicode="&#58900;" d="M959.9 384.3C959.9 631.6 759.4 832 512 832 264.6 832 64 631.6 64 384.3c0-228.4 171.1-416.8 392.3-444.2 19.9-3.9 40.2-5.1 60.4-3.4 245.3 2.5 443.2 202 443.2 447.6z m-64-6.3c-1.3 22-4.2 43.9-8.7 65.4 0.4 7.1 0.5 14.3 0.3 21.5 6.1-28.5 8.9-57.7 8.4-86.9zM128 384.3c0 27.2 2.8 53.6 8.2 79.2 16.6-17.7 55.7-17.4 65.2 9.2 17.1-10.2 40-12 40-32.3 0-67.1 2.4-138.9 63.3-140.1 1.7 0 34-12.2 49.4-52 5.3-13.8 26.3 0 49.3 0 11.5 0 0-19.4 0-61.2 0-41.7 89.9-105.9 89.9-105.9-0.4-27.7 0.7-50 3-67.8-20.3 0.4-37.4-2.3-50.9-6.9C265.1 37.9 128 195.1 128 384.3z m478.5-372c-2 9.7-10.7 15.1-26.6 10.9 12.7 54 18.8 84.2 45.3 107.2 38.3 33.2 4.5 70.1-24.6 65.7-23-3.5-8.4 28.5-29 30.3-20.5 1.7-47.3 42.4-76.8 56.5-15.6 7.4-31 27.3-55.1 28.3-21.4 0.8-52.6-18.1-52.6-3.5 0 46.9-4.8 80.4-5.7 93.8-0.8 10.7-7 3.6 21.9 2.9 15.7-0.4 8 31.6 23.6 32.8 15.3 1.2 51.7-14.3 61-8.1 8.7 5.8 63.4-143.8 63.4-24.7 0 14.1-7.3 38.7 0 52.1 29 52.8 56 95.9 53.6 102.2-1.4 3.6-29.6 6.5-52.2-1.1-7.6-2.6 2.4-14.5-8.6-17.1-41-9.5-77.2 11.1-64.5 30.4 13 19.7 60.1 8.6 64.2 48.3 2.3 22.7 4.3 49 5.7 68.6 55.2-8.7 49.1 71.6-33 80.2 161.9-1.9 305.2-105.1 358.3-257.9-2.5 2.3-5.7 3.8-9.2 4.2-24.8 62-85 17.1-64.6-37.6-109.4-84.1-81.4-142.8-45.5-176.5 18.9-17.6 37-44.2 48.7-63.2-12.8-37.3 47.1-22.4 76.6 40.8C843 147 738.6 45.9 606.5 12.3z"  horiz-adv-x="1024" />

    
    <glyph glyph-name="zhediezuo" unicode="&#58901;" d="M961.422222 497.777778c0-28.444444-22.755556-51.2-45.511111-51.2H392.533333c-22.755556 0-45.511111 22.755556-45.511111 51.2s22.755556 51.2 45.511111 51.2H910.222222c28.444444 0 51.2-22.755556 51.2-51.2z m0-227.555556c0-28.444444-22.755556-51.2-45.511111-51.2H392.533333c-22.755556 0-45.511111 22.755556-45.511111 51.2s22.755556 51.2 45.511111 51.2H910.222222c28.444444 0 51.2-22.755556 51.2-51.2z m0-221.866666c0-28.444444-22.755556-51.2-51.2-51.2H113.777778c-28.444444 0-51.2 22.755556-51.2 51.2s22.755556 51.2 51.2 51.2h796.444444c28.444444 0 51.2-22.755556 51.2-51.2z m-671.288889 170.666666L62.577778 384l227.555555 164.977778v-329.955556z m-227.555555 500.622222c0 28.444444 22.755556 51.2 51.2 51.2h796.444444c28.444444 0 51.2-22.755556 51.2-51.2s-22.755556-51.2-51.2-51.2H113.777778c-28.444444 0-51.2 22.755556-51.2 51.2z"  horiz-adv-x="1024" />

    
    <glyph glyph-name="touxiang" unicode="&#58902;" d="M28.53 384.26625c0-264.5934375 214.5028125-479.09625 479.0953125-479.09625s479.09625 214.5028125 479.09625 479.09625S772.21875 863.3615625 507.6253125 863.3615625 28.53 648.85875 28.53 384.26625z m0 0M72.13125 384.26625c0-240.55875 195.0421875-435.6 435.6-435.6 240.55875 0 435.6 195.04125 435.6 435.6 0 240.5578125-195.04125 435.6-435.6 435.6-240.5578125 0-435.6-195.0421875-435.6-435.6z m0 0M507.73125-51.33375000000001c118.471875 0 226.0959375 47.4309375 304.580625 124.2140625-6.7003125 25.73625-14.25 47.325-22.75875 58.0659375-34.03125 42.5390625-188.5546875 63.2765625-188.5546875 63.2765625L507.7321875 169.125l-93.054375 24.9909375s-153.6721875-20.2059375-187.7034375-62.745c-8.6146875-10.846875-16.378125-32.86125-23.184375-59.128125 78.4846875-76.464375 185.683125-123.5765625 303.9421875-123.5765625z m0 0M310.138125 431.91c-2.34 24.459375 10.846875 46.2609375 29.776875 48.91875s36.159375-15.1003125 38.8171875-39.6665625c2.34-24.4603125-10.846875-46.261875-29.776875-48.920625-19.036875-2.65875-36.37125 15.208125-38.8171875 39.6684375M434.0334375 286.42499999999995v-126.553125h146.54625V286.42499999999995H434.034375z m231.624375 105.815625c-18.9290625 2.128125-31.69125 23.61-28.3940625 48.17625 3.1903125 24.459375 21.05625 42.7509375 39.8803125 40.6246875 18.93-2.128125 31.69125-23.6090625 28.3940625-48.1753125-3.29625-24.5671875-21.05625-42.6459375-39.8803125-40.625625M507.73125 638.0109375s-155.7984375-6.5934375-155.7984375-89.97v-169.0921875c0-32.7553125 52.96125-126.1284375 100.498125-130.063125 23.92875-1.914375 55.0875-4.4671875 55.0875-4.4671875s31.3734375 2.65875 55.089375 4.4671875c47.536875 4.040625 99.965625 97.3078125 99.965625 130.063125V543.680625c0.425625 82.951875-154.84125 94.33125-154.84125 94.33125M603.2325 615.0403125c-43.7090625 19.355625-95.5003125 23.0775-95.5003125 23.0775h-0.2128125c-6.80625-0.31875-155.480625-8.5078125-155.480625-89.97v-169.093125c0-32.7553125 52.96125-126.1284375 100.4990625-130.063125 23.9278125-1.914375 55.0875-4.46625 55.0875-4.46625s31.3725 2.65875 55.0884375 4.46625c47.5378125 4.040625 100.498125 97.3078125 100.498125 130.063125V543.680625c-0.2128125 34.9884375-27.969375 57.3215625-59.979375 71.3596875M412.7634375 198.15750000000003l81.8878125-249.2784375c4.359375-0.2128125 8.720625-0.2128125 13.0809375-0.2128125 4.040625 0 8.188125 0.1059375 12.2296875 0.2128125l81.8878125 249.2784375-94.543125-19.355625-94.543125 19.355625z m0 0M518.5790625 124.45875000000001l21.4828125 21.481875-32.4365625 32.5425-32.116875-32.5425 21.4828125-21.481875-26.6934375-126.0225 37.3275-37.3275 37.3284375 37.3275-26.3746875 126.0225z m0 0M507.73125 178.6959375l76.3584375 38.4975 39.34875-23.1834375-64.021875-91.45875-51.684375 76.1446875z m0 0M507.945 178.6959375l-76.2515625 38.604375-39.34875-23.184375 77.315625-91.45875 38.2846875 76.03875z m0 0M670.3378125 447.8625h-14.889375L635.5621875 586.21875s45.196875 17.76 54.5559375-36.7959375c9.253125-54.2371875-19.78125-101.5621875-19.78125-101.5621875m-333.2925 0h14.8875l19.888125 138.358125s-45.1978125 17.76-54.556875-36.7959375c-9.2521875-54.2371875 19.78125-101.5621875 19.78125-101.5621875M354.590625 572.3943750000001s63.2775-49.2384375 151.014375-49.2384375 170.6878125 27.118125 208.4409375 101.030625c-2.12625-0.5325-67.3171875 11.165625-148.88625 73.3790625-102.73125 78.590625-295.3275-37.8590625-210.568125-125.17125"  horiz-adv-x="1024" />

    
    <glyph glyph-name="kongzhimianban" unicode="&#58889;" d="M875.861 750.933H163.157c-52.565 0-95.914-41.984-95.914-93.525v-446.464c0-51.541 43.008-93.525 95.914-93.525h712.704c52.566 0 95.915 41.984 95.915 93.525V657.408c0 51.541-43.35 93.525-95.915 93.525z m52.566-544.085c0-23.552-19.115-42.667-43.008-42.667h-171.35V405.845c0 17.067-13.653 30.72-30.72 30.72s-30.72-13.653-30.72-30.72v-241.664H548.523V496.64c0 17.067-13.654 30.72-30.72 30.72s-30.72-13.653-30.72-30.72v-332.117H382.976V348.16c0 17.067-13.653 30.72-30.72 30.72s-30.72-13.653-30.72-30.72v-183.637H160.768c-23.552 0-43.008 19.114-43.008 42.666V648.875c0 23.552 19.115 46.08 43.008 46.08l724.992-3.414c23.552 0 43.008-19.114 43.008-42.666v-442.027zM740.693 23.893c0-17.066-13.994-30.72-30.72-30.72H328.704c-16.725 0-30.72 13.654-30.72 30.72 0 16.726 13.653 30.72 30.72 30.72h381.27c17.066 0 30.72-13.994 30.72-30.72z"  horiz-adv-x="1024" />

    
    <glyph glyph-name="xitongjiance" unicode="&#58890;" d="M928 782H100.1C55.4 782 19 746 19 701.8v-464c0-44.6 36.4-80.8 81.1-80.8h115.5c10.6 0 20.6 4.6 27.4 12.7L415 372l69.9-93.6c6.7-9 17.2-14.3 28.3-14.5h0.5c11 0 21.4 5 28.2 13.6l114.7 144.7c13.8-5.2 28.8-8.1 44.5-8.1 69.5 0 126 56.5 126 126s-56.5 126-126 126-126-56.5-126-126c0-27.7 9-53.4 24.3-74.2L514.6 359l-68.9 92.3c-6.6 8.8-16.8 14.1-27.7 14.4-11 0.3-21.5-4.3-28.6-12.7L199 229h-98.8c-5 0-9.1 4-9.1 8.8v464c0 4.6 4 8.2 9.1 8.2H928c5.1 0 9-3.6 9-8.2v-464c0-4.8-4.1-8.8-9-8.8H513v-0.1c-0.7 0-1.3 0.1-2 0.1-19.9 0-36-16.1-36-36v-158H192c-19.9 0-36-16.1-36-36s16.1-36 36-36h644c19.9 0 36 16.1 36 36s-16.1 36-36 36H547V157h381c44.7 0 81 36.3 81 80.8v464c0 44.2-36.4 80.2-81 80.2zM701.1 606.2c36.4 0 66-29.6 66-66s-29.6-66-66-66-66 29.6-66 66 29.6 66 66 66z"  horiz-adv-x="1024" />

    
    <glyph glyph-name="jiedianguanli" unicode="&#58891;" d="M979.06107282 696.6582329299999c0 64.46438109-52.21323737 116.67761845-116.6763796 116.67761845-51.57150487 0-94.85871426-33.71944891-110.26029367-80.15709397-67.0895377 48.65521482-149.34774805 77.70785633-238.54856227 77.70785631-90.07545346 0-173.09061082-29.6361473-240.52950865-79.16600135-14.99399259 47.19583093-58.57233542 81.61523902-110.72734609 81.61523901-64.46438109 0-116.67761845-52.21323737-116.67761845-116.67761845 0-59.44697467 44.57067433-107.92627056 102.03422487-115.21823456-26.19457815-53.73084795-41.24555856-113.8765429-41.24555856-177.70043038 0-184.46711531 122.74434421-340.05626918 290.99346752-390.11140236-0.87463925-5.6009122-1.75051735-11.20182442-1.75051735-17.03440452 0-64.46438109 52.21447622-116.67761845 116.67761844-116.67761845s116.67761845 52.21323737 116.67761846 116.67761845c0 5.6009122-0.87463925 11.02590548-1.63406398 16.45089875 169.4161349 49.23748174 293.32749066 205.35315358 293.32749067 390.69490813 0 63.88087531-15.10920713 124.14550139-41.36325082 177.93457602 56.29901671 8.28305663 99.70267948 56.35476566 99.70267948 114.98408892z m-708.52344741-43.22774381c62.88854382 61.19625316 148.5895622 99.11669596 243.03945073 99.11669594 92.81706343 0 177.11692461-36.69520454 239.65610828-96.0257258 1.5745984-4.19975501 3.38334247-8.22606882 5.36676659-12.19291706L625.58664832 537.39460315c-30.56901323 26.19333927-69.83238654 42.58725022-113.23604931 42.58725019-46.84647078 0-89.19957535-18.6684685-120.58624-48.65397595l-129.97808151 105.06820719c3.32511575 5.48321997 6.35909807 11.08413218 8.75134791 17.03440454z m241.81421248-131.78806442c64.34792771 0 116.67761845-52.33092959 116.67761845-116.67761845s-52.32969073-116.67637958-116.67761845-116.67637959c-64.34792771 0-116.67761845 52.32969073-116.67761844 116.67637959s52.32969073 116.67761845 116.67761844 116.67761845zM103.98079274 696.6582329299999c0 32.14485051 26.19457815 58.33942867 58.3381898 58.33942867 32.14485051 0 58.33942867-26.19333927 58.33942864-58.33942867 0-4.7832608-1.63406397-9.04248135-2.74160996-13.53336982-4.43390064-18.1431894-16.45213762-33.31186208-33.42831548-40.31269264-6.82615047-2.85930222-14.29279455-4.49212733-22.1695032-4.49212732-32.14485051 0.00123887-58.33818978 26.19457815-58.3381898 58.33818978z m316.60330102-628.77394026c-147.3036195 40.83797172-255.8728614 175.71700628-255.8728614 335.85651417 0 70.18174669 21.00249164 135.40431366 56.82181808 190.18448092l-1.98342413 1.6328251c1.45814503 0.81765141 3.03274345 1.51637172 4.43390063 2.39224982-0.87463925-1.28346496-1.5745984-2.68338329-2.4504765-4.02507492l135.63845928-109.61856121c-12.2523826-23.91878167-19.83548007-50.63863895-19.83548008-79.34068143 0-86.63264544 63.12268945-158.09785709 145.7872478-172.04005263l-8.57542897-126.42005899c-21.64422412-7.46912181-40.19500038-20.94550382-53.96375471-38.62164083z m91.76774413-129.62872137c-32.14361165 0-58.33942867 26.19457815-58.33942867 58.33942866 0 1.69229067 0.81641255 3.09097013 0.93286593 4.66680742 2.50870321 29.86905406 26.89453732 53.67138238 57.40532386 53.67138237 30.62723991 0 55.12952741-23.97700839 57.46355055-54.0219814 0.11645338-1.51637172 0.87463925-2.79983668 0.87463925-4.31620839 0.00123887-32.14485051-26.19333927-58.33942867-58.33695092-58.33942866z m92.17533097 129.10468114c-17.26855017 22.4593978-42.23789005 38.50270971-71.17283935 43.75302292l8.28429551 121.75325156c82.60633165 14.00166111 145.7290211 85.46563387 145.72902111 172.09827933 0 32.08662383-9.27538812 61.7809978-24.32760742 87.62497692l133.77148856 107.5769104 2.9757556 2.39224984c1.51637172-2.1581042 3.09097013-4.37567395 4.55035404-6.59200483 36.57751229-55.12952741 58.04705633-121.16974578 58.04705631-192.22613174-0.00123887-160.83946706-109.56157338-296.18679289-257.85752436-336.3805544z m257.8562855 570.96102956c-6.82615047 0-13.18524855 1.75051735-19.31020098 3.90862156-19.42789323 6.8831383-33.25363538 23.68587493-36.98757686 44.33652869-0.64173247 3.38458133-2.04165082 6.53377815-2.0416508 10.09303955 0 32.14485051 26.19333927 58.33942867 58.33942864 58.33942867 32.14361165 0 58.33942867-26.19333927 58.33942867-58.33942867 0-32.14485051-26.19457815-58.33818978-58.33942867-58.3381898z"  horiz-adv-x="1024" />

    
    <glyph glyph-name="zhanghaoguanli" unicode="&#58892;" d="M374.912 356.608c-88.448 33.664-151.168 118.4-151.168 217.728C223.616 703.232 329.216 807.68 459.52 807.68c130.304 0 235.776-104.448 235.776-233.216 0-99.328-62.72-184.064-151.168-217.728 192.768-36.224 343.424-193.792 363.264-391.296l-46.976-4.608C840.192 162.56 667.136 317.824 459.52 317.824c-208.384 0-381.824-156.288-401.152-359.04l-46.848 4.352c18.944 198.528 169.856 357.12 363.392 393.472z m423.936-23.296h211.328v-49.92H850.432c-15.744 18.048-33.024 34.816-51.584 49.92z m136.064-199.68h75.264v-49.92h-62.464c-3.2 16.896-7.552 33.536-12.8 49.92zM712.32 732.8h297.856v-49.92h-273.92c-6.272 17.408-14.208 34.176-23.936 49.92z m32.128-199.808h265.6v-49.92H727.424a257.939 257.939 0 0 1 17.024 49.92zM459.52 387.84c104.192 0 188.672 83.584 188.672 186.624 0 103.04-84.48 186.624-188.672 186.624s-188.672-83.584-188.672-186.624c0-103.168 84.48-186.624 188.672-186.624z m0 0"  horiz-adv-x="1024" />

    
    <glyph glyph-name="jiaoyishenji" unicode="&#58893;" d="M852.13671875 130.875c-15.55664063 0-28.125-12.56835938-28.125-28.125v-112.5H233.38671875V334.78125h7.03125c15.46875 0 28.125 12.65625 28.125 28.125s-12.65625 28.125-28.125 28.125h-7.03125v75.5859375h7.03125c15.46875 0 28.125 12.65625 28.125 28.125s-12.65625 28.125-28.125 28.125h-7.03125v75.5859375h7.03125c15.46875 0 28.125 12.65625 28.125 28.125s-12.65625 28.125-28.125 28.125h-7.03125V777.75h590.625v-253.125H402.13671875c-15.46875 0-28.125-12.65625-28.125-28.125s12.65625-28.125 28.125-28.125h450c15.46875 0 28.125 12.65625 28.125 28.125V805.875c0 15.46875-12.65625 28.125-28.125 28.125H205.26171875c-15.46875 0-28.125-12.65625-28.125-28.125v-151.171875H127.91796875c-15.46875 0-28.125-12.65625-28.125-28.125s12.65625-28.125 28.125-28.125h49.21875v-75.5859375H127.91796875c-15.46875 0-28.125-12.65625-28.125-28.125s12.65625-28.125 28.125-28.125h49.21875v-75.5859375H127.91796875c-15.46875 0-28.125-12.65625-28.125-28.125s12.65625-28.125 28.125-28.125h49.21875v-372.65625c0-15.46875 12.65625-28.125 28.125-28.125h646.875c15.46875 0 28.125 12.65625 28.125 28.125V102.75c0 15.55664063-12.65625 28.125-28.125 28.125zM916.03320313 379.86914062000005c-10.8984375 10.8984375-28.828125 10.8984375-39.81445313 1e-8L697.44921875 201.01171875l-64.16015625 64.16015625c-10.8984375 10.8984375-28.828125 10.8984375-39.81445313 0-10.8984375-10.8984375-10.8984375-28.828125 0-39.81445313l81.82617188-81.82617187c0.61523438-0.79101563 1.31835938-1.58203125 2.02148438-2.28515625 1.7578125-1.7578125 3.60351563-3.1640625 5.62499999-4.30664063 10.81054688-6.76757813 25.40039063-5.44921875 34.8046875 3.95507813 1.49414063 1.49414063 2.8125 3.1640625 3.95507813 5.00976563L916.03320313 340.0546875c10.98632813 10.98632813 10.98632813 28.828125-1e-8 39.81445313zM508.74804687 384.87890625c-10.81054688 24.78515625-35.59570313 42.1875-64.42382812 42.1875-38.84765625 0-70.3125-31.46484375-70.3125-70.3125s31.46484375-70.3125 70.3125-70.3125c28.828125 0 53.61328125 17.40234375 64.42382813 42.1875H663.171875c15.46875 0 28.125 12.65625 28.125 28.125s-12.65625 28.125-28.125 28.125H508.74804687zM444.32421875 328.62890625c-15.55664063 0-28.125 12.56835938-28.125 28.125s12.56835938 28.125 28.125 28.125 28.125-12.56835938 28.125-28.125-12.65625-28.125-28.125-28.125z"  horiz-adv-x="1024" />

    
    <glyph glyph-name="mobanguanli" unicode="&#58894;" d="M936.61426865 412.50320917H555.67633818a24.83963174 24.83963174 0 0 0-25.37928018 24.779867V809.22013388C530.29705801 823.08047578 541.45652364 834 555.67633818 834h380.93793047c14.21981455 0 25.37928018-10.91952422 25.37928018-24.77986612v-371.93705771a25.1999833 25.1999833 0 0 0-25.37928018-24.77986699z m-355.61753701 49.61949874h330.11696777V784.4402669H581.05649727v-322.31755899z m355.61753701-528.11683682H555.67633818a24.83963174 24.83963174 0 0 0-25.37928018 24.78074503V330.72367383000005c0 13.86034277 11.15946562 24.77986612 25.37928018 24.77986699h380.93793047c14.21981455 0 25.37928018-10.91952422 25.37928018-24.77986699v-371.93705771a25.1999833 25.1999833 0 0 0-25.37928018-24.77986612zM581.05561836-16.43263798999999h330.11696777V305.88316318h-330.11696777v-322.31755898z m-126.95880234-49.5597331H87.38045791A24.83963174 24.83963174 0 0 0 62.00029883-41.21426279000002V809.22013388C62.00029883 823.08047578 73.16064336 834 87.38045791 834h367.19711894c14.21981455 0 25.43992471-10.91952422 25.43992471-24.77986612v-850.43351776a25.98045117 25.98045117 0 0 0-25.91980664-24.77986612zM112.81862481-16.433516899999972H429.19829756V784.4402669H112.81950371v-800.8737838z"  horiz-adv-x="1024" />

    
    <glyph glyph-name="xitongguanli" unicode="&#58895;" d="M462.42 112.17H75.11c-19.5 0-35.36 16.4-35.36 36.55V744.54c0 20.16 15.86 36.55 35.36 36.55H938.2c19.5 0 35.36-16.4 35.36-36.55v-348.35H925.2v334.9H88.12v-568.93h374.3v-49.99zM977.25 304.91c-3.53 14.12-14.12 24.7-24.7 24.7h-7.06c-38.82 0-70.58 31.76-70.58 70.58 0 14.12 7.06 28.23 7.06 28.23 7.05 14.1 0.02 31.72-10.55 38.8-0.02 0.02-0.05 0.03-0.07 0.05l-70.46 38.75a0.61 0.61 0 0 0-0.16 0.12c-3.55 3.46-10.54 3.46-14.05 3.46-7.04 0-17.58-3.51-24.64-10.53-0.04-0.04-0.07-0.08-0.1-0.13-7.13-10.61-35.29-31.7-56.42-31.7-21.15 0-49.34 21.13-56.44 31.73-0.02 0.02-0.03 0.05-0.04 0.08-3.55 7.03-14.12 10.55-24.68 10.55-6.93 0-10.46-3.4-13.93-3.53-0.13 0-0.25-0.03-0.36-0.1l-70.37-38.71c-0.03-0.01-0.05-0.03-0.07-0.05-10.55-7.06-17.58-24.63-10.59-38.72l0.06-0.15c0.28-1.13 3.51-14.64 3.51-28.15 0-38.82-31.76-70.58-70.58-70.58h-3.53c-10.59 0-21.17-10.59-24.7-28.23 0 0-7.06-28.23-7.06-52.94 0-21.18 7.06-52.94 7.06-52.94 3.53-14.12 14.12-24.7 24.7-24.7h10.59c38.82 0 70.58-31.76 70.58-70.58 0-14.11-7.06-28.23-7.06-28.23-7.05-14.1-0.01-31.73 10.56-38.8 0.02-0.01 0.04-0.02 0.06-0.04l66.94-38.76c0.05-0.03 0.1-0.07 0.14-0.11 3.55-3.47 10.55-3.47 14.05-3.47 7.06 0 17.65 3.53 24.7 10.59 7.06 7.06 35.29 31.76 56.47 31.76 21.15 0 49.34-24.65 56.44-35.25 0.02-0.02 0.03-0.05 0.04-0.07 3.55-7.03 14.12-10.55 24.68-10.55 7.02 0 10.55 0 17.53 10.42 0.07 0.11 0.17 0.2 0.29 0.26l70.37 38.7c0.03 0.01 0.05 0.03 0.07 0.05 10.57 7.07 17.6 24.7 10.55 38.79 0 0-7.06 14.12-7.06 28.23 0 38.82 31.76 70.58 70.58 70.58h3.53c10.59 0 21.18 10.59 24.7 24.7 0 0 7.06 28.23 7.06 52.93 0 21.2-7.06 52.96-7.06 52.96zM914.73 206a0.72 0.72 0 0 0-0.67-0.67c-48.9-3.38-85.5-43.24-85.5-92.25 0-14.66 5.59-29.32 6.11-33.33 0.04-0.3-0.11-0.59-0.38-0.73l-58.04-30.54c-3.07 3.07-9.22 12.29-21.5 24.58a0.435 0.435 0 0 1-0.07 0.06c-15.37 12.29-33.82 18.43-49.19 18.43-15.38 0-30.75-6.15-49.2-18.44-0.01-0.01-0.03-0.02-0.04-0.03-11.22-8.42-19.88-16.84-21.31-18.24-0.13-0.13-0.31-0.2-0.5-0.2h-2.59a0.73 0.73 0 0 0-0.35 0.09l-54.81 30.45a0.707 0.707 0 0 0-0.36 0.72c0.52 3.99 6.11 18.66 6.11 33.34 0 49.01-36.6 88.87-85.5 92.25a0.72 0.72 0 0 0-0.67 0.67c-0.29 4.68-3.05 24.79-3.05 39.36 0 14.58 2.76 34.69 3.05 39.37a0.72 0.72 0 0 0 0.67 0.67c48.9 3.38 85.5 43.24 85.5 92.25 0 14.66-5.59 29.32-6.11 33.33-0.04 0.3 0.11 0.59 0.38 0.73l57.88 30.46c0.1 0.05 0.22 0.08 0.33 0.08h2.28c0.32 0 0.61-0.21 0.69-0.52 0.87-3.49 9.63-12.1 18.39-17.94 18.46-12.31 33.84-18.46 49.22-18.46 15.35 0 33.77 6.13 49.13 12.27 0.06 0.02 0.12 0.06 0.17 0.09 11.19 8.4 19.83 16.79 21.25 18.19 0.13 0.13 0.31 0.2 0.5 0.2h2.6c0.12 0 0.24-0.03 0.35-0.09l54.81-30.45c0.26-0.14 0.4-0.43 0.36-0.72-0.52-3.99-6.11-18.66-6.11-33.34 0-49.01 36.6-88.87 85.5-92.25 0.36-0.02 0.64-0.31 0.67-0.67 0.29-4.67 3.05-24.78 3.05-39.36s-2.77-34.68-3.05-39.36zM705.51 152.49c-52.91 0-95.95 43.04-95.95 95.95s43.04 95.95 95.95 95.95 95.95-43.04 95.95-95.95-43.04-95.95-95.95-95.95z m0 141.9c-25.34 0-45.95-20.61-45.95-45.95 0-25.34 20.61-45.95 45.95-45.95s45.95 20.61 45.95 45.95c0 25.34-20.61 45.95-45.95 45.95zM515.13-12.5H193.71c-12.13 0-21.96 11.19-21.96 25s9.83 25 21.96 25h321.42c12.13 0 21.96-11.19 21.96-25s-9.83-25-21.96-25z"  horiz-adv-x="1024" />

    
    <glyph glyph-name="xiala" unicode="&#58896;" d="M561.873 170.835c-11.262-11.262-26.545-21.72-41.025-18.502-14.479-2.413-28.154 8.849-39.415 18.502L133.129 520.748c-17.697 17.696-17.697 46.655 0 64.352s46.655 17.696 64.351 0l324.173-333.021 324.977 333.02c17.696 17.697 46.655 17.697 64.351 0s17.697-46.655 0-64.351L561.873 170.835z"  horiz-adv-x="1024" />

    
    <glyph glyph-name="tongjiguanli" unicode="&#58897;" d="M866.133 571.733s-4.266 0 0 0L861.867 576H857.6l-4.267 4.267s-4.266 0-4.266 4.266h-12.8c-4.267 0-4.267 0-4.267-4.266h-4.267L823.467 576H819.2l-256-234.667L443.733 460.8c-12.8 12.8-34.133 12.8-46.933 0L247.467 311.467c-12.8-12.8-12.8-34.134 0-46.934 8.533-4.266 17.066-8.533 25.6-8.533 8.533 0 17.066 4.267 21.333 8.533l128 128 119.467-119.466c12.8-12.8 29.866-12.8 42.666 0l243.2 226.133c21.334-46.933 34.134-98.133 34.134-149.333C861.867 157.867 704 0 512 0c-192 0-349.867 157.867-349.867 349.867 0 192 157.867 349.866 349.867 349.866 17.067 0 34.133 12.8 34.133 34.134C541.867 755.2 529.067 768 512 768 281.6 768 98.133 580.267 98.133 354.133S285.867-59.733 512-59.733 925.867 128 925.867 354.133c0 76.8-21.334 149.334-59.734 217.6z"  horiz-adv-x="1024" />

    
    <glyph glyph-name="yewuguanli" unicode="&#58898;" d="M895.761 332.834h-12.8a12.8 12.8 0 0 0-12.783 12.783V754.978a38.4 38.4 0 0 1-38.383 38.383H345.702a38.366 38.366 0 0 1-38.365-38.366v-51.166a12.8 12.8 0 0 0-12.783-12.783h-102.35a38.4 38.4 0 0 1-38.382-38.383v-307.012a12.8 12.8 0 0 0-12.783-12.783 38.4 38.4 0 0 1-38.383-38.383v-281.429a38.366 38.366 0 0 1 38.366-38.366h741.956a38.366 38.366 0 0 1 38.366 38.366v294.23c0 15.308-10.223 25.548-25.583 25.548z m-76.749 396.561v-383.778a12.8 12.8 0 0 0-12.783-12.783H624.572c-10.24 0-20.463-10.24-20.463-25.583v-63.966a12.8 12.8 0 0 0-12.783-12.783H437.81a12.8 12.8 0 0 0-12.783 12.783v63.966c0 15.343-15.343 25.583-25.583 25.583h-28.143a12.8 12.8 0 0 0-12.783 12.783V729.395a12.8 12.8 0 0 0 12.783 12.783H806.23c7.066 0 12.783-5.717 12.783-12.783z m-601.241-89.549h76.766a12.8 12.8 0 0 0 12.782-12.783v-281.429a12.8 12.8 0 0 0-12.782-12.783H217.77a12.8 12.8 0 0 0-12.783 12.783v281.43a12.8 12.8 0 0 0 12.783 12.782z m639.624-614.024h-690.79a12.8 12.8 0 0 0-12.783 12.783V268.868a12.8 12.8 0 0 0 12.783 12.783h194.44a12.8 12.8 0 0 0 12.783-12.783v-51.166a38.366 38.366 0 0 1 38.366-38.365h204.68a38.4 38.4 0 0 1 38.384 38.382v51.166a12.8 12.8 0 0 0 12.783 12.783h189.32a12.8 12.8 0 0 0 12.783-12.783v-230.263a12.732 12.732 0 0 0-12.749-12.8z m12.783 0M432.384 596.326h318.498c15.923 0 26.539 10.616 26.539 26.54 0 15.922-10.616 26.538-26.539 26.538H432.384c-15.923 0-26.539-10.616-26.539-26.539-0.017-15.906 10.599-26.539 26.539-26.539z m0-159.249h318.498c15.923 0 26.539 10.616 26.539 26.539 0 15.923-10.616 26.539-26.539 26.539H432.384c-15.923 0-26.539-10.616-26.539-26.539-0.017-15.923 10.599-26.539 26.539-26.539z m0 0"  horiz-adv-x="1024" />

    


  </font>
</defs>
</svg>
